<!DOCTYPE svg PUBLIC "-//W3C//DTD SVG 1.1//EN" "http://www.w3.org/Graphics/SVG/1.1/DTD/svg11.dtd">
<!-- Uploaded to: SVG Repo, www.svgrepo.com, Transformed by: SVG Repo Mixer Tools -->
<svg fill="#FFF5E0" height="800px" width="800px" version="1.1" id="Capa_1" xmlns="http://www.w3.org/2000/svg" xmlns:xlink="http://www.w3.org/1999/xlink" viewBox="0 0 257.981 257.981" xml:space="preserve">
<g id="SVGRepo_bgCarrier" stroke-width="0"/>
<g id="SVGRepo_tracerCarrier" stroke-linecap="round" stroke-linejoin="round"/>
<g id="SVGRepo_iconCarrier"> <g> <path d="M254.182,114.498c-2.549-2.014-6.148-2.007-8.693,0.012c-33.573,26.671-108.304,33.278-133.267,11.786 c-13.425-11.557-35.846-34.408-36.273-58.285c0.49-2.227,0.755-4.537,0.755-6.908c0-5.911-1.61-11.45-4.405-16.214 c7.481-3.151,16.729-6.949,20.131-7.984c3.698-1.125,5.785-5.035,4.66-8.734c-1.126-3.699-5.038-5.784-8.734-4.66 c-3.424,1.042-10.734,3.986-17.308,6.721l13.078-19.303c2.169-3.201,1.332-7.554-1.868-9.722c-3.203-2.17-7.554-1.331-9.722,1.868 L59.232,22.71l0.075-15.275c0.019-3.866-3.1-7.016-6.966-7.034c-0.012,0-0.023,0-0.035,0c-3.85,0-6.98,3.111-6.999,6.966 l-0.106,21.599c-0.217-0.004-0.432-0.016-0.649-0.016c-1.132,0-2.25,0.06-3.352,0.175l-5.342-12.892 c-1.479-3.571-5.573-5.269-9.146-3.787c-3.571,1.479-5.267,5.575-3.787,9.146l4.978,12.013 c-7.068,4.295-12.356,11.238-14.481,19.441c-0.407,0.052-0.817,0.157-1.22,0.334l-8.453,3.72c-3.481,1.532-3.481,6.471,0,8.003 l8.453,3.72c0.403,0.177,0.813,0.283,1.22,0.334c1.94,7.493,6.525,13.927,12.69,18.26c-10.41,28.514-8.836,59.946,4.2,87.07 c-2.943,3.195-5.714,6.559-8.259,10.059c-1.473,2.026-1.751,4.687-0.729,6.974c16.305,36.47,51.088,61.7,90.773,65.845 c3.905,0.408,7.866,0.615,11.774,0.615c0.004,0,0.002,0,0.007,0c35.688,0,69.574-17.304,90.639-46.284 c0.029-0.04,0.05-0.084,0.078-0.124c0.082-0.118,0.156-0.243,0.232-0.368c0.099-0.163,0.194-0.328,0.279-0.497 c0.028-0.055,0.063-0.104,0.089-0.16l40.987-87.591C257.56,120.016,256.732,116.512,254.182,114.498z M44.552,42.95 c10.009,0,18.152,8.144,18.152,18.152c0,10.01-8.144,18.153-18.152,18.153c-10.01,0-18.153-8.144-18.153-18.153 C26.399,51.094,34.542,42.95,44.552,42.95z M44.552,93.256c7.782,0,14.926-2.78,20.493-7.398 c6.79,20.575,23.494,38.522,38.042,51.047c0.645,0.555,1.321,1.092,2.011,1.62c-23.615,1.584-45.86,10.533-64.05,25.735 c-9.571-22.57-10.354-48.118-1.982-71.482C40.851,93.086,42.681,93.256,44.552,93.256z M123.879,243.981c-0.002,0-0.004,0-0.006,0 c-3.425,0-6.896-0.182-10.32-0.539c-33.372-3.485-62.782-24.009-77.695-53.928c0.57-0.719,1.153-1.429,1.744-2.133 c2.36,3.597,4.925,7.072,7.686,10.384c21.457,25.742,53.333,40.325,86.316,40.325c6.289,0,12.625-0.531,18.931-1.616 c3.81-0.655,6.367-4.275,5.711-8.086c-0.654-3.81-4.271-6.368-8.086-5.711c-34.452,5.931-69.758-7.051-92.118-33.877 c-3.09-3.706-5.904-7.639-8.411-11.736c18.001-16.03,40.903-24.801,65.069-24.801c3.422,0,6.894,0.182,10.318,0.539 c33.373,3.485,62.784,24.01,77.696,53.928C182.161,230.129,153.739,243.981,123.879,243.981z M208.47,191.892 c-9.965-16.234-23.865-29.551-40.16-38.857c2.709-0.115,5.459-0.289,8.252-0.532c20.808-1.81,40.858-7.044,57.208-14.678 L208.47,191.892z"/> <path d="M44.553,68.101c1.84,0,3.64-0.75,4.95-2.05c1.3-1.3,2.05-3.109,2.05-4.95c0-1.84-0.75-3.649-2.05-4.949 c-1.311-1.301-3.11-2.051-4.95-2.051s-3.65,0.75-4.95,2.051c-1.3,1.3-2.05,3.109-2.05,4.949c0,1.841,0.75,3.65,2.05,4.95 S42.713,68.101,44.553,68.101z"/> </g> </g>
</svg>