<!DOCTYPE svg PUBLIC "-//W3C//DTD SVG 1.1//EN" "http://www.w3.org/Graphics/SVG/1.1/DTD/svg11.dtd">
<!-- Uploaded to: SVG Repo, www.svgrepo.com, Transformed by: SVG Repo Mixer Tools -->
<svg fill="#FFF5E0" height="800px" width="800px" version="1.1" id="Capa_1" xmlns="http://www.w3.org/2000/svg" xmlns:xlink="http://www.w3.org/1999/xlink" viewBox="0 0 205.358 205.358" xml:space="preserve">
<g id="SVGRepo_bgCarrier" stroke-width="0"/>
<g id="SVGRepo_tracerCarrier" stroke-linecap="round" stroke-linejoin="round"/>
<g id="SVGRepo_iconCarrier"> <g> <circle cx="113.728" cy="62.608" r="6.865"/> <path d="M205.358,87.963l-2.008-4.436c-5.627-12.435-18.682-21.091-34.564-23.158c-2.571-22.737-21.912-40.467-45.325-40.467 c-25.157,0-45.624,20.467-45.624,45.625c0,1.231,0.067,2.457,0.166,3.681c-31.269,5.49-59.074,24.361-75.783,51.654 c-0.306,0.287-0.594,0.602-0.853,0.952c-1.003,1.359-1.442,2.962-1.358,4.527c-0.028,1.267,0.28,2.54,0.94,3.674 c19.906,34.199,56.807,55.443,96.303,55.443s76.397-21.245,96.303-55.443c1.267-2.177,1.267-4.866,0-7.042 c-3.843-6.603-8.343-12.768-13.436-18.436c8.307-2.797,15.883-7.315,21.776-13.146L205.358,87.963z M123.462,33.902 c16.794,0,30.572,13.157,31.567,29.706l-31.36,13.906c-1.832,0.812-3.228,2.37-3.834,4.279c-0.606,1.91-0.366,3.987,0.661,5.708 c0.137,0.229,0.283,0.454,0.431,0.678l0.096,0.146c0,0,0.001,0.001,0.001,0.001c0,0.001,0.001,0.002,0.001,0.002 c1.991,3.14,4.465,5.963,7.355,8.427c-1.619,0.255-3.261,0.396-4.917,0.396c-14.46,0-27.059-9.769-30.638-23.756 c-0.655-2.557-0.986-5.204-0.986-7.868C91.838,48.089,106.024,33.902,123.462,33.902z M81.239,82.848 c4.223,10.326,12.033,18.575,21.729,23.446c-0.254,0.306-0.501,0.616-0.761,0.918c-21.315,24.797-58.916,31.706-85.354,16.794 C31.818,102.152,55.191,87.186,81.239,82.848z M97.254,171.456c-25.603,0-49.954-10.221-67.933-27.693 c5.838,1.371,11.913,2.07,18.125,2.07c4.39,0,8.851-0.348,13.342-1.053c20.265-3.178,39.231-13.545,52.036-28.442 c1.554-1.808,3.014-3.692,4.389-5.621c2.049,0.281,4.134,0.434,6.249,0.434c7.64,0,15.096-1.905,21.763-5.538 c3.593,1.039,7.361,1.706,11.244,1.986c2.338,0.168,4.727,0.194,7.139,0.076c6.021,5.611,11.284,11.919,15.699,18.816 C161.474,154.328,130.408,171.456,97.254,171.456z M165.375,93.507L165.375,93.507c-2.674,0.27-5.336,0.313-7.897,0.128 c-3.778-0.272-7.379-1.024-10.704-2.234l-0.002-0.001c-3.371-1.226-6.324-2.894-8.809-4.911l26.86-11.91l0,0l1.054-0.467 c9.432,0.969,17.403,4.942,22.062,10.842C181.648,89.615,173.684,92.666,165.375,93.507z"/> </g> </g>
</svg>