<!DOCTYPE svg PUBLIC "-//W3C//DTD SVG 1.1//EN" "http://www.w3.org/Graphics/SVG/1.1/DTD/svg11.dtd">
<!-- Uploaded to: SVG Repo, www.svgrepo.com, Transformed by: SVG Repo Mixer Tools -->
<svg height="800px" width="800px" version="1.1" id="Capa_1" xmlns="http://www.w3.org/2000/svg" xmlns:xlink="http://www.w3.org/1999/xlink" viewBox="0 0 100.208 100.208" xml:space="preserve" fill="#8DECB4">
<g id="SVGRepo_bgCarrier" stroke-width="0"/>
<g id="SVGRepo_tracerCarrier" stroke-linecap="round" stroke-linejoin="round"/>
<g id="SVGRepo_iconCarrier"> <g> <path style="fill:#8DECB4;" d="M50.104,0C22.432,0,0,22.432,0,50.104s22.432,50.104,50.104,50.104s50.104-22.432,50.104-50.104 S77.776,0,50.104,0z M58.299,20.911c0,0,6.596,12.687,6.596,16.327c0,3.643-2.956,6.599-6.596,6.599 c-3.643,0-6.596-2.956-6.596-6.599C51.704,33.598,58.299,20.911,58.299,20.911z M41.883,20.911c0,0,6.592,12.687,6.592,16.327 c0,3.643-2.953,6.599-6.592,6.599c-3.65,0-6.603-2.956-6.603-6.599C35.28,33.598,41.883,20.911,41.883,20.911z M23.731,51.145 c0-3.643,1.732-16.33,1.732-16.33s11.463,12.691,11.463,16.33c0,3.64-2.956,6.599-6.596,6.599 C26.687,57.745,23.731,54.785,23.731,51.145z M50.712,79.408c-10.329,0-18.703-4.241-18.703-11.485 c0-5.547,5.755-6.549,8.496-9.713c3.432-3.962,4.47-9.065,10.207-9.065c5.468,0,6.449,4.985,9.867,8.672 c3.046,3.282,8.836,4.026,8.836,10.107C69.415,75.167,61.044,79.408,50.712,79.408z M69.881,57.745 c-3.643,0-6.599-2.96-6.599-6.599c0-3.643,11.467-16.33,11.467-16.33s1.725,12.691,1.725,16.33 C76.476,54.785,73.52,57.745,69.881,57.745z"/> </g> </g>
</svg>