<!DOCTYPE svg PUBLIC "-//W3C//DTD SVG 1.1//EN" "http://www.w3.org/Graphics/SVG/1.1/DTD/svg11.dtd">
<!-- Uploaded to: SVG Repo, www.svgrepo.com, Transformed by: SVG Repo Mixer Tools -->
<svg fill="#FFF5E0" height="800px" width="800px" version="1.1" id="Capa_1" xmlns="http://www.w3.org/2000/svg" xmlns:xlink="http://www.w3.org/1999/xlink" viewBox="0 0 246.477 246.477" xml:space="preserve">
<g id="SVGRepo_bgCarrier" stroke-width="0"/>
<g id="SVGRepo_tracerCarrier" stroke-linecap="round" stroke-linejoin="round"/>
<g id="SVGRepo_iconCarrier"> <g> <path d="M200.825,101.025c-13.905-21.169-35.142-37.694-60.669-47.465c8.96-4.797,15.071-14.248,15.071-25.103 C155.227,12.766,142.461,0,126.77,0c-11.224,0-20.948,6.534-25.577,15.996l-12.682,6.165c-2.197,1.068-3.679,3.206-3.909,5.639 c-0.229,2.432,0.826,4.809,2.785,6.269l18.831,14.041c1.367,1.429,2.877,2.718,4.513,3.839c-27.493,9.505-50.381,26.7-65.08,49.077 c-16.935,25.78-21.474,55.777-12.781,84.466c0.913,3.012,3.682,4.972,6.695,4.972c0.579,0,1.167-0.073,1.752-0.224 c12.461-3.214,24.152-7.946,34.886-14.095c4.006,16.413,11.325,31.897,21.662,45.93l-18.36,15.446h31.541 c2.409,2.456,4.918,4.854,7.538,7.186c1.327,1.181,2.99,1.771,4.653,1.771s3.327-0.59,4.653-1.771 c2.62-2.331,5.129-4.73,7.538-7.186h31.541l-18.36-15.446c10.337-14.033,17.656-29.517,21.662-45.93 c10.734,6.149,22.425,10.881,34.886,14.095c0.586,0.151,1.173,0.224,1.752,0.224c3.013,0,5.783-1.96,6.695-4.972 C222.299,156.803,217.76,126.806,200.825,101.025z M126.77,14c7.972,0,14.457,6.485,14.457,14.457s-6.485,14.457-14.457,14.457 c-7.971,0-14.457-6.485-14.457-14.457S118.799,14,126.77,14z M44.532,174.765c-4.937-22.589-0.481-45.803,12.82-66.054 c9.558-14.551,23.111-26.65,39.387-35.412c-0.103,0.144-0.197,0.292-0.299,0.436c-1.742,2.46-3.393,4.963-4.951,7.504 c-0.193,0.315-0.385,0.632-0.575,0.948c-0.708,1.176-1.4,2.358-2.068,3.55c-0.06,0.108-0.124,0.214-0.184,0.322 c-0.717,1.288-1.405,2.587-2.076,3.892c-0.165,0.321-0.327,0.644-0.489,0.967c-0.575,1.143-1.134,2.291-1.674,3.446 c-0.092,0.197-0.188,0.392-0.279,0.589c-0.608,1.32-1.189,2.649-1.75,3.985c-0.134,0.318-0.263,0.638-0.394,0.957 c-0.466,1.134-0.915,2.273-1.347,3.418c-0.099,0.261-0.201,0.521-0.298,0.783c-0.499,1.349-0.973,2.706-1.424,4.068 c-0.101,0.305-0.196,0.612-0.295,0.917c-0.37,1.145-0.722,2.294-1.058,3.448c-0.09,0.308-0.183,0.616-0.27,0.925 c-0.389,1.377-0.756,2.759-1.097,4.147c-0.068,0.278-0.13,0.557-0.196,0.835c-0.28,1.174-0.542,2.352-0.787,3.534 c-0.071,0.343-0.144,0.685-0.213,1.029c-0.279,1.403-0.537,2.81-0.766,4.223c-0.037,0.227-0.067,0.456-0.103,0.683 c-0.192,1.227-0.365,2.459-0.52,3.693c-0.046,0.366-0.093,0.731-0.135,1.097c-0.167,1.43-0.315,2.862-0.431,4.3 c-0.011,0.142-0.018,0.284-0.029,0.426c-0.102,1.315-0.178,2.634-0.238,3.955c-0.017,0.38-0.033,0.759-0.047,1.139 c-0.052,1.454-0.087,2.911-0.087,4.371c0,1.429,0.034,2.863,0.085,4.299c0.015,0.43,0.038,0.861,0.058,1.291 c0.049,1.048,0.11,2.096,0.186,3.145c0.032,0.447,0.063,0.892,0.1,1.339c0.104,1.254,0.226,2.507,0.369,3.759 c0.021,0.188,0.037,0.377,0.059,0.565c0.006,0.049,0.01,0.098,0.015,0.147C64.634,167.032,54.918,171.5,44.532,174.765z M87.985,163.771c-0.88-5.604-1.327-11.285-1.327-16.885c0-0.988,0.014-1.975,0.041-2.961c0.009-0.317,0.027-0.634,0.039-0.951 c0.024-0.668,0.046-1.336,0.083-2.002c0.02-0.374,0.052-0.747,0.076-1.121c0.039-0.607,0.076-1.215,0.125-1.821 c0.033-0.398,0.076-0.795,0.113-1.193c0.054-0.58,0.104-1.16,0.168-1.739c0.044-0.407,0.1-0.812,0.149-1.218 c0.069-0.568,0.134-1.136,0.211-1.703c0.057-0.413,0.124-0.825,0.185-1.237c0.083-0.556,0.162-1.113,0.254-1.668 c0.069-0.417,0.147-0.832,0.221-1.247c0.097-0.549,0.191-1.099,0.296-1.647c0.08-0.415,0.17-0.829,0.255-1.243 c0.112-0.545,0.22-1.091,0.34-1.635c0.091-0.412,0.191-0.823,0.287-1.234c0.127-0.544,0.251-1.088,0.386-1.63 c0.102-0.408,0.212-0.814,0.318-1.22c0.142-0.542,0.281-1.084,0.431-1.624c0.113-0.405,0.234-0.809,0.351-1.213 c0.156-0.539,0.311-1.078,0.475-1.615c0.123-0.401,0.254-0.801,0.382-1.201c0.171-0.536,0.34-1.072,0.519-1.606 c0.135-0.401,0.277-0.8,0.417-1.199c0.185-0.53,0.368-1.06,0.561-1.587c0.145-0.398,0.298-0.793,0.448-1.189 c0.199-0.527,0.397-1.054,0.605-1.578c0.156-0.394,0.319-0.785,0.479-1.178c0.213-0.523,0.426-1.045,0.648-1.565 c0.167-0.392,0.341-0.781,0.512-1.171c0.227-0.517,0.454-1.035,0.689-1.55c0.177-0.388,0.361-0.774,0.543-1.161 c0.241-0.512,0.482-1.025,0.731-1.534c0.189-0.386,0.383-0.77,0.577-1.154c0.255-0.507,0.509-1.014,0.772-1.518 c0.199-0.381,0.403-0.761,0.606-1.14c0.268-0.502,0.537-1.004,0.814-1.503c0.21-0.379,0.426-0.757,0.64-1.134 c0.281-0.495,0.563-0.99,0.852-1.482c0.221-0.377,0.448-0.751,0.673-1.126c0.294-0.489,0.59-0.978,0.892-1.464 c0.231-0.372,0.468-0.742,0.704-1.113c0.308-0.483,0.616-0.966,0.931-1.446c0.243-0.37,0.49-0.737,0.737-1.105 c0.32-0.475,0.641-0.95,0.968-1.422c0.255-0.367,0.514-0.733,0.773-1.098c0.331-0.468,0.664-0.934,1.003-1.398 c0.265-0.364,0.535-0.725,0.805-1.087c0.344-0.461,0.69-0.921,1.041-1.378c0.277-0.36,0.557-0.719,0.839-1.077 c0.355-0.453,0.713-0.904,1.075-1.353c0.288-0.357,0.58-0.712,0.872-1.066c0.368-0.446,0.738-0.891,1.114-1.333 c0.298-0.352,0.6-0.702,0.903-1.052c0.379-0.437,0.76-0.873,1.147-1.307c0.311-0.35,0.626-0.698,0.941-1.045 c0.39-0.428,0.782-0.855,1.178-1.28c0.323-0.346,0.649-0.691,0.977-1.034c0.4-0.419,0.802-0.837,1.209-1.252 c0.335-0.342,0.673-0.683,1.013-1.023c0.393-0.393,0.789-0.784,1.188-1.173c0.399,0.39,0.795,0.781,1.188,1.174 c0.339,0.339,0.676,0.679,1.01,1.02c0.408,0.417,0.812,0.835,1.213,1.256c0.327,0.343,0.652,0.686,0.974,1.032 c0.397,0.425,0.789,0.852,1.179,1.28c0.316,0.347,0.63,0.695,0.941,1.045c0.386,0.434,0.768,0.87,1.147,1.307 c0.303,0.35,0.605,0.7,0.903,1.052c0.375,0.442,0.746,0.887,1.114,1.333c0.293,0.354,0.584,0.709,0.872,1.066 c0.363,0.449,0.72,0.901,1.075,1.353c0.281,0.358,0.562,0.716,0.839,1.077c0.352,0.458,0.698,0.918,1.042,1.38 c0.269,0.36,0.538,0.721,0.802,1.083c0.34,0.466,0.674,0.934,1.007,1.403c0.258,0.364,0.517,0.729,0.77,1.095 c0.327,0.472,0.648,0.947,0.968,1.423c0.247,0.368,0.495,0.735,0.737,1.105c0.315,0.48,0.624,0.963,0.931,1.446 c0.236,0.37,0.472,0.741,0.704,1.113c0.302,0.486,0.597,0.975,0.892,1.464c0.226,0.375,0.452,0.749,0.673,1.126 c0.289,0.492,0.57,0.987,0.852,1.482c0.214,0.378,0.43,0.755,0.64,1.134c0.276,0.499,0.545,1.001,0.814,1.503 c0.203,0.38,0.408,0.759,0.606,1.14c0.263,0.504,0.517,1.011,0.772,1.518c0.193,0.384,0.388,0.768,0.577,1.154 c0.249,0.51,0.49,1.022,0.731,1.534c0.182,0.387,0.366,0.773,0.543,1.161c0.235,0.515,0.462,1.032,0.689,1.55 c0.171,0.39,0.345,0.779,0.512,1.171c0.221,0.52,0.434,1.043,0.648,1.565c0.16,0.392,0.323,0.784,0.479,1.178 c0.207,0.524,0.406,1.052,0.605,1.578c0.15,0.396,0.303,0.792,0.448,1.189c0.193,0.528,0.376,1.058,0.561,1.587 c0.139,0.4,0.282,0.798,0.417,1.199c0.179,0.534,0.348,1.07,0.519,1.606c0.128,0.4,0.259,0.8,0.382,1.201 c0.165,0.537,0.319,1.076,0.475,1.615c0.117,0.404,0.238,0.808,0.351,1.213c0.15,0.54,0.289,1.082,0.431,1.624 c0.106,0.407,0.217,0.813,0.318,1.22c0.136,0.545,0.26,1.092,0.388,1.638c0.095,0.408,0.195,0.815,0.285,1.224 c0.121,0.547,0.23,1.097,0.343,1.646c0.084,0.411,0.173,0.822,0.253,1.234c0.106,0.548,0.199,1.097,0.296,1.647 c0.073,0.416,0.152,0.831,0.221,1.247c0.091,0.555,0.171,1.112,0.254,1.668c0.061,0.412,0.128,0.824,0.185,1.237 c0.078,0.566,0.143,1.135,0.211,1.703c0.049,0.406,0.104,0.811,0.149,1.218c0.063,0.578,0.114,1.159,0.168,1.739 c0.037,0.398,0.081,0.794,0.113,1.193c0.05,0.606,0.086,1.214,0.125,1.821c0.024,0.374,0.055,0.747,0.076,1.121 c0.036,0.666,0.059,1.334,0.083,2.002c0.011,0.317,0.03,0.633,0.039,0.951c0.027,0.985,0.041,1.972,0.041,2.961 c0,5.6-0.447,11.28-1.327,16.885c-3.876,24.661-16.023,47.409-35.253,66.145C104.008,211.18,91.861,188.432,87.985,163.771z M201.944,174.765c-10.386-3.265-20.102-7.732-28.998-13.334c0.006-0.049,0.01-0.098,0.015-0.147 c0.022-0.188,0.038-0.377,0.059-0.565c0.142-1.252,0.265-2.505,0.369-3.759c0.037-0.447,0.068-0.892,0.1-1.339 c0.076-1.049,0.137-2.097,0.186-3.145c0.02-0.431,0.043-0.861,0.058-1.291c0.051-1.436,0.085-2.87,0.085-4.299 c0-1.46-0.036-2.917-0.087-4.371c-0.013-0.38-0.03-0.76-0.047-1.139c-0.059-1.321-0.136-2.64-0.238-3.955 c-0.011-0.142-0.018-0.284-0.029-0.426c-0.116-1.438-0.264-2.87-0.431-4.3c-0.043-0.366-0.089-0.731-0.135-1.097 c-0.155-1.234-0.327-2.465-0.52-3.693c-0.036-0.228-0.066-0.456-0.103-0.683c-0.23-1.413-0.488-2.82-0.766-4.223 c-0.068-0.344-0.142-0.686-0.213-1.029c-0.245-1.182-0.507-2.36-0.787-3.534c-0.066-0.278-0.128-0.557-0.196-0.835 c-0.341-1.388-0.708-2.771-1.097-4.147c-0.087-0.309-0.181-0.616-0.27-0.925c-0.336-1.154-0.689-2.303-1.058-3.448 c-0.099-0.306-0.194-0.612-0.295-0.917c-0.451-1.363-0.925-2.719-1.424-4.068c-0.097-0.262-0.2-0.521-0.298-0.783 c-0.432-1.145-0.881-2.284-1.347-3.418c-0.131-0.319-0.26-0.638-0.394-0.957c-0.561-1.336-1.142-2.665-1.75-3.985 c-0.091-0.197-0.187-0.392-0.279-0.589c-0.539-1.155-1.099-2.304-1.674-3.446c-0.162-0.323-0.324-0.645-0.489-0.967 c-0.671-1.305-1.359-2.604-2.076-3.892c-0.06-0.108-0.124-0.214-0.184-0.322c-0.668-1.192-1.36-2.374-2.068-3.55 c-0.191-0.317-0.382-0.633-0.575-0.948c-1.559-2.541-3.209-5.044-4.951-7.504c-0.102-0.144-0.197-0.292-0.299-0.436 c16.276,8.762,29.829,20.861,39.387,35.412C202.426,128.962,206.881,152.176,201.944,174.765z"/> </g> </g>
</svg>