<!DOCTYPE svg PUBLIC "-//W3C//DTD SVG 1.1//EN" "http://www.w3.org/Graphics/SVG/1.1/DTD/svg11.dtd">
<!-- Uploaded to: SVG Repo, www.svgrepo.com, Transformed by: SVG Repo Mixer Tools -->
<svg fill="#FFF5E0" height="800px" width="800px" version="1.1" id="Capa_1" xmlns="http://www.w3.org/2000/svg" xmlns:xlink="http://www.w3.org/1999/xlink" viewBox="0 0 228.197 228.197" xml:space="preserve">
<g id="SVGRepo_bgCarrier" stroke-width="0"/>
<g id="SVGRepo_tracerCarrier" stroke-linecap="round" stroke-linejoin="round"/>
<g id="SVGRepo_iconCarrier"> <g> <circle cx="72.193" cy="103.181" r="7.287"/> <path d="M228.124,92.929c-0.639-6.109-5.179-11.453-12.455-14.66c-3.535-1.56-7.669,0.044-9.229,3.582 c-1.56,3.538,0.044,7.669,3.582,9.229c1.856,0.818,2.942,1.69,3.541,2.345c-1.005-0.021-2.609-0.31-4.823-1.319 c-0.261-0.119-0.527-0.215-0.794-0.3c-4.34-5.45-9.799-10.106-16.171-13.645c-17.463-9.699-42.289-14.82-61.174-16.016 c1.281-13.837-3.093-27.723-12.406-38.41c-1.866-2.142-4.843-2.942-7.532-2.028C100.218,25.26,91.118,32.46,84.836,41.809 c-7.1-6.871-17.225-10.98-25.208-10.756c-2.841,0.075-5.354,1.858-6.361,4.515c-4.107,10.826-2.987,22.827,2.91,32.649 L23.965,91.693c-4.926,3.59-10.752,5.488-16.848,5.488H7c-3.866,0-7,3.134-7,7v25.934c0,2.197,1.013,4.159,2.597,5.442 c15.397,17.961,33.461,28.738,49.261,35.208l21.784,32.958c1.296,1.96,3.489,3.14,5.84,3.14h33.429c0.002,0,0.004,0,0.006,0 c0.054,0,0.107-0.007,0.161-0.009c0.192-0.004,0.383-0.011,0.571-0.03c0.046-0.005,0.091-0.015,0.137-0.021 c0.198-0.025,0.395-0.054,0.587-0.094c0.045-0.01,0.088-0.024,0.133-0.034c0.192-0.045,0.381-0.094,0.567-0.154 c0.055-0.018,0.108-0.04,0.163-0.06c0.171-0.06,0.34-0.123,0.505-0.196c0.068-0.03,0.133-0.064,0.2-0.096 c0.147-0.07,0.292-0.143,0.433-0.224c0.076-0.043,0.15-0.09,0.224-0.136c0.127-0.079,0.252-0.16,0.373-0.246 c0.078-0.055,0.154-0.113,0.23-0.172c0.115-0.089,0.226-0.181,0.335-0.277c0.072-0.063,0.144-0.127,0.213-0.194 c0.111-0.106,0.216-0.216,0.319-0.329c0.042-0.045,0.087-0.085,0.128-0.131c0.026-0.03,0.049-0.062,0.075-0.092 c0.034-0.04,0.067-0.081,0.1-0.122c3.783-4.389,6.727-9.313,8.81-14.542c9.552-0.367,18.939-1.909,28.014-4.599 c0.583,0.522,1.175,1.036,1.785,1.536l0.729,0.598c7.45,6.113,16.398,10.117,25.877,11.579c0.361,0.056,0.72,0.083,1.074,0.083 c3.255,0,6.148-2.276,6.842-5.554c2.201-10.409,7.299-29.159,11.733-35.797l2.005-2.324c11.429-11.527,15.869-25.069,13.196-40.25 c-0.468-2.659-1.156-5.251-2.023-7.77c2.407-0.361,4.6-1.213,6.478-2.563C226.652,101.938,228.608,97.558,228.124,92.929z M65.011,45.904c4.047,1.294,8.6,3.974,11.527,7.474l-8.964,6.533C65.288,55.597,64.391,50.71,65.011,45.904z M73.139,177.572 c2.786,0.652,5.338,1.16,7.583,1.549c2.36,5.077,5.502,9.709,9.231,13.742h-6.708L73.139,177.572z M195.152,145.515 c-0.121,0.121-0.237,0.247-0.35,0.376l-2.423,2.808c-0.154,0.179-0.299,0.365-0.435,0.559c-5.529,7.898-10.177,24.582-12.535,34.21 c-4.645-1.528-8.999-3.915-12.824-7.053l-0.729-0.598c-12.472-10.232-17.522-26.828-12.868-42.279 c1.115-3.702-0.981-7.606-4.684-8.722c-3.699-1.113-7.605,0.981-8.721,4.684c-4.53,15.039-2.255,30.881,5.669,43.735 c-4.806,1.104-9.696,1.864-14.651,2.249c0.55-5.946,0.08-12.02-1.507-17.96c-0.997-3.735-4.834-5.95-8.569-4.956 c-3.735,0.998-5.954,4.834-4.956,8.569c2.774,10.386,0.924,21.345-4.928,30.185c-8.296-4.223-15.005-11.775-18.415-20.951 c-0.897-2.416-3.05-4.143-5.603-4.496c-5.963-0.824-15.898-2.757-27.337-7.199c-0.106-0.046-0.215-0.087-0.323-0.128 c-14.27-5.585-30.835-15.076-44.966-31.21V110.63c6.555-1.063,12.754-3.645,18.211-7.623l57.566-41.953 c0.26-0.188,0.5-0.397,0.729-0.617c0.044-0.042,0.086-0.084,0.129-0.127c0.435-0.439,0.807-0.931,1.109-1.463 c0.035-0.061,0.068-0.122,0.101-0.183c0.143-0.27,0.274-0.547,0.381-0.833c0.001-0.002,0.002-0.003,0.002-0.005 c3.41-9.176,10.119-16.729,18.415-20.951c5.852,8.84,7.702,19.799,4.928,30.185c-0.014,0.051-0.021,0.103-0.033,0.154 c-0.033,0.136-0.063,0.273-0.088,0.412c-0.02,0.109-0.036,0.218-0.05,0.327c-0.015,0.112-0.028,0.224-0.037,0.337 c-0.011,0.138-0.018,0.276-0.021,0.413c-0.001,0.054-0.008,0.107-0.008,0.162c0,0.038,0.005,0.074,0.006,0.111 c0.002,0.147,0.011,0.293,0.022,0.439c0.007,0.091,0.014,0.181,0.024,0.271c0.016,0.132,0.037,0.263,0.06,0.393 c0.018,0.103,0.036,0.206,0.058,0.308c0.025,0.11,0.054,0.219,0.084,0.328c0.032,0.116,0.064,0.232,0.101,0.346 c0.031,0.092,0.066,0.183,0.1,0.274c0.046,0.123,0.093,0.245,0.146,0.365c0.037,0.084,0.079,0.165,0.119,0.247 c0.058,0.119,0.117,0.237,0.182,0.352c0.047,0.084,0.1,0.166,0.151,0.248c0.066,0.106,0.131,0.212,0.202,0.314 c0.063,0.09,0.13,0.176,0.197,0.263c0.067,0.088,0.134,0.176,0.205,0.26c0.08,0.094,0.165,0.184,0.25,0.275 c0.067,0.071,0.132,0.143,0.202,0.211c0.094,0.092,0.193,0.179,0.292,0.266c0.07,0.061,0.138,0.122,0.21,0.18 c0.101,0.081,0.206,0.158,0.312,0.234c0.08,0.057,0.159,0.115,0.241,0.169c0.1,0.065,0.203,0.125,0.306,0.186 c0.098,0.058,0.197,0.115,0.298,0.168c0.091,0.047,0.184,0.09,0.277,0.134c0.122,0.057,0.244,0.112,0.37,0.162 c0.082,0.032,0.165,0.062,0.249,0.091c0.14,0.05,0.281,0.096,0.425,0.137c0.035,0.01,0.068,0.024,0.103,0.033 c0.051,0.014,0.102,0.02,0.153,0.033c0.138,0.033,0.276,0.064,0.417,0.089c0.106,0.019,0.211,0.034,0.316,0.048 c0.117,0.015,0.234,0.029,0.353,0.039c0.131,0.011,0.261,0.016,0.391,0.02c0.059,0.001,0.117,0.009,0.177,0.009 c17.569,0,44.666,4.548,62.645,14.533c10.506,5.835,17.676,15.678,19.67,27.005C206.523,128.055,203.417,137.25,195.152,145.515z"/> </g> </g>
</svg>