<!DOCTYPE svg PUBLIC "-//W3C//DTD SVG 1.1//EN" "http://www.w3.org/Graphics/SVG/1.1/DTD/svg11.dtd">
<!-- Uploaded to: SVG Repo, www.svgrepo.com, Transformed by: SVG Repo Mixer Tools -->
<svg fill="#FFF5E0" height="800px" width="800px" version="1.1" id="Layer_1" xmlns="http://www.w3.org/2000/svg" xmlns:xlink="http://www.w3.org/1999/xlink" viewBox="0 0 512.001 512.001" xml:space="preserve">
<g id="SVGRepo_bgCarrier" stroke-width="0"/>
<g id="SVGRepo_tracerCarrier" stroke-linecap="round" stroke-linejoin="round"/>
<g id="SVGRepo_iconCarrier"> <g> <g> <path d="M427.798,64.183c-2.89-3.81-8.313-4.573-12.14-1.675c-3.818,2.881-4.582,8.322-1.701,12.141 c0.538,0.72,53.153,72.305,25.635,171.069l-141.575,74.952c-2.147-2.06-4.443-3.962-6.872-5.692 c29.512-10.612,52.886-34.193,63.219-63.836c0.534-0.19,1.06-0.417,1.563-0.72l43.39-26.034c2.603-1.562,4.209-4.391,4.209-7.437 c0-165.888-52.857-212.949-55.114-214.866c-3.645-3.115-9.103-2.69-12.236,0.963c-3.107,3.645-2.673,9.121,0.972,12.227 c0.477,0.417,48.015,42.808,49.005,196.773l-26.604,15.964c0.386-3.635,0.588-7.325,0.588-11.061 c0-57.422-46.713-104.136-104.136-104.136S151.865,159.528,151.865,216.95c0,3.736,0.202,7.425,0.588,11.061l-26.604-15.964 c0.989-152.125,48.345-196.174,49.057-196.816c3.601-3.115,4.009-8.557,0.92-12.184c-3.124-3.653-8.6-4.079-12.236-0.963 c-2.256,1.918-55.114,48.978-55.114,214.866c0,3.046,1.605,5.875,4.209,7.437l43.39,26.034c0.503,0.303,1.03,0.529,1.563,0.72 c10.333,29.643,33.707,53.224,63.219,63.836c-2.429,1.73-4.725,3.632-6.872,5.692L72.409,245.717 C44.891,146.953,97.506,75.369,98.044,74.649c2.881-3.818,2.117-9.259-1.701-12.141c-3.836-2.898-9.259-2.135-12.141,1.675 c-2.456,3.246-59.774,80.688-27.44,189.943c0.66,2.239,2.195,4.113,4.261,5.207l133.035,70.43H91.119 c-3.532,0-6.717,2.143-8.044,5.424c-28.82,71.203,15.768,159.683,17.677,163.415c1.536,3.003,4.582,4.721,7.732,4.721 c1.328,0,2.681-0.304,3.948-0.955c4.261-2.187,5.953-7.411,3.766-11.681c-0.417-0.816-40.561-80.41-19.057-143.568h100.653 c-0.942,3.154-1.629,6.414-2.048,9.758l-53.792,7.685c-2.864,0.408-5.337,2.222-6.587,4.834 c-34.912,72.73,33.688,137.563,36.63,140.288c1.675,1.553,3.792,2.317,5.901,2.317c2.334,0,4.651-0.929,6.361-2.777 c3.254-3.515,3.055-8.999-0.46-12.262c-0.616-0.564-59.461-56.129-34.651-115.894l46.924-6.702 c2.618,15.916,11.438,29.765,23.893,38.975c-9.633,6.175-16.033,16.967-16.033,29.237c0,19.144,15.568,34.712,34.712,34.712 c4.799,0,8.678-3.888,8.678-8.678s-3.879-8.678-8.678-8.678c-9.572,0-17.356-7.784-17.356-17.356 c0-9.572,7.784-17.356,17.356-17.356c1.708,0,3.295-0.5,4.637-1.351c4.104,0.878,8.357,1.351,12.719,1.351 c4.362,0,8.615-0.472,12.719-1.351c1.342,0.851,2.929,1.351,4.637,1.351c9.572,0,17.356,7.784,17.356,17.356 c0,9.572-7.784,17.356-17.356,17.356c-4.799,0-8.678,3.888-8.678,8.678s3.879,8.678,8.678,8.678 c19.144,0,34.712-15.568,34.712-34.712c0-12.269-6.401-23.062-16.033-29.237c12.456-9.21,21.275-23.059,23.893-38.975 l46.924,6.702c24.715,59.583-34.044,115.33-34.66,115.903c-3.506,3.263-3.697,8.747-0.434,12.262 c1.701,1.84,4.018,2.768,6.352,2.768c2.109,0,4.218-0.764,5.892-2.317c2.942-2.725,71.541-67.558,36.63-140.288 c-1.25-2.612-3.723-4.426-6.587-4.834l-53.792-7.685c-0.419-3.344-1.106-6.605-2.048-9.758h100.653 c21.443,63.037-18.64,142.753-19.065,143.568c-2.178,4.27-0.486,9.502,3.784,11.681c1.258,0.651,2.612,0.955,3.94,0.955 c3.15,0,6.196-1.727,7.732-4.721c1.909-3.732,46.497-92.212,17.677-163.415c-1.328-3.28-4.513-5.424-8.044-5.424h-102.94 l133.035-70.43c2.065-1.093,3.601-2.968,4.261-5.207C487.572,144.871,430.254,67.428,427.798,64.183z M169.221,216.95 c0-47.85,38.929-86.78,86.78-86.78s86.78,38.929,86.78,86.78s-38.929,86.78-86.78,86.78S169.221,264.8,169.221,216.95z M256,407.865c-23.925,0-43.39-19.465-43.39-43.39c0-23.925,19.465-43.39,43.39-43.39s43.39,19.465,43.39,43.39 C299.39,388.4,279.925,407.865,256,407.865z"/> </g> </g> </g>
</svg>